# xmcd
#
# Track frame offsets:
#	150
#	24304
#	48760
#	70179
#	95505
#	105743
#	130340
#	144683
#	168222
#
# Disc length: 2486 seconds
#
# Revision: 1
# Processed by: cddbd v1.5.2PL0 Copyright (c) Steve Scherf et al.
# Submitted via: audiograbber 1.83.01
#
DISCID=7309b409
DTITLE=John Mayall  - Back To The Roots CD
DYEAR=1900
DGENRE=
TTITLE0=dream with me
TTITLE1=Full Speed Ahead
TTITLE2=Mr Censor Man
TTITLE3=Force Of Nature
TTITLE4=Boogie Albert
TTITLE5=Goodbye December
TTITLE6=Unanswered Questions
TTITLE7=Devil's Tricks
TTITLE8=Travelling
EXTD=
EXTT0=
EXTT1=
EXTT2=
EXTT3=
EXTT4=
EXTT5=
EXTT6=
EXTT7=
EXTT8=
PLAYORDER=
